<svg xmlns="http://www.w3.org/2000/svg" fill="none" viewBox="0 0 130 32" class="header-content_textLogoML__sH1Rj"><path fill="currentColor" d="M15.861 15.082c2.178 3.321 1.693 7.67-1.166 10.459-3.365 3.279-8.815 3.279-12.174 0-2.853-2.789-3.338-7.138-1.165-10.459l.19-.293 7.062 4.014 7.063-4.014z"></path><path fill="currentColor" fill-rule="evenodd" d="m14.701 13.299-6.087 3.46-6.088-3.46L8.614 4zM4.39 12.857l4.225 2.4 4.225-2.4-4.225-6.45z" clip-rule="evenodd"></path><path fill="currentColor" d="M39.128 22.335h-8.031V9.662h2.45V20.1h5.581zM51.444 22.335h-2.45V9.662h2.45zM61.376 22.335V9.662h4.198q.957-.002 1.546.07c1.013.116 1.89.468 2.62 1.048a5.46 5.46 0 0 1 1.682 2.235q.578 1.357.577 2.986.002 1.628-.577 2.992a5.56 5.56 0 0 1-1.683 2.225q-1.101.871-2.619 1.048-.597.071-1.546.07zm4.198-2.251q.955-.002 1.405-.09.81-.16 1.35-.751.549-.598.812-1.442.271-.855.272-1.805c0-.633-.093-1.261-.278-1.83a3.6 3.6 0 0 0-.822-1.438 2.34 2.34 0 0 0-1.334-.73q-.45-.088-1.405-.09h-1.71v8.17h1.71zM86.717 22.602c-1.28 0-2.39-.271-3.343-.82a5.57 5.57 0 0 1-2.19-2.326q-.758-1.494-.756-3.46-.002-1.965.757-3.46a5.54 5.54 0 0 1 2.189-2.314c.947-.554 2.063-.826 3.343-.826s2.39.277 3.343.825a5.45 5.45 0 0 1 2.178 2.316q.768 1.494.768 3.46t-.768 3.46a5.54 5.54 0 0 1-2.178 2.325q-1.423.822-3.343.82m.07-2.251q1.192-.001 1.999-.538c.539-.357.947-.862 1.214-1.512.272-.649.403-1.415.403-2.3q.001-2.043-.953-3.193c-.637-.766-1.574-1.155-2.81-1.155q-1.19.001-1.998.538c-.539.356-.947.862-1.214 1.511-.272.65-.403 1.416-.403 2.3q-.001 2.044.953 3.194c.637.766 1.573 1.155 2.81 1.155"></path></svg>