<?xml version="1.0" encoding="utf-8"?>
<svg xmlns="http://www.w3.org/2000/svg" width="100" height="26" viewBox="0 0 100 26">
  <style>
    .st0{fill:#00A3FF;}
    .st1{opacity:0.6;fill:#00A3FF;}
    .st2{opacity:0.2;fill:#00A3FF;}
  </style>
  <g id="icon">
    <path class="st0" d="M1.7,11.7L1.5,12c-2.3,3.6-1.8,8.3,1.3,11.3C4.5,25.1,6.9,26,9.3,26C9.3,26,9.3,26,1.7,11.7z"/>
    <path class="st1" d="M9.3,16l-7.6-4.4C9.3,26,9.3,26,9.3,26C9.3,22.9,9.3,19.3,9.3,16z"/>
    <path class="st1" d="M16.9,11.7l0.2,0.3c2.3,3.6,1.8,8.3-1.3,11.3C14,25.1,11.7,26,9.3,26C9.3,26,9.3,26,16.9,11.7z"/>
    <path class="st2" d="M9.3,16l7.6-4.4C9.3,26,9.3,26,9.3,26C9.3,22.9,9.3,19.3,9.3,16z"/>
    <path class="st2" d="M9.3,6.3v7.5l6.6-3.7L9.3,6.3z"/>
    <path class="st1" d="M9.3,6.3l-6.6,3.8l6.6,3.7V6.3z"/>
    <path class="st0" d="M9.3,0L2.7,10.1l6.6-3.8V0z"/>
    <path class="st1" d="M9.3,6.3l6.6,3.8L9.3,0V6.3z"/>
  </g>

  <g id="wordmark" transform="translate(-0.528,-3)" fill="currentColor">
    <path d="M39.128 22.335h-8.031V9.662h2.45V20.1h5.581zM51.444 22.335h-2.45V9.662h2.45zM61.376 22.335V9.662h4.198q.957-.002 1.546.07c1.013.116 1.89.468 2.62 1.048a5.46 5.46 0 0 1 1.682 2.235q.578 1.357.577 2.986.002 1.628-.577 2.992a5.56 5.56 0 0 1-1.683 2.225q-1.101.871-2.619 1.048-.597.071-1.546.07zm4.198-2.251q.955-.002 1.405-.09.81-.16 1.35-.751.549-.598.812-1.442.271-.855.272-1.805c0-.633-.093-1.261-.278-1.83a3.6 3.6 0 0 0-.822-1.438 2.34 2.34 0 0 0-1.334-.73q-.45-.088-1.405-.09h-1.71v8.17h1.71zM86.717 22.602c-1.28 0-2.39-.271-3.343-.82a5.57 5.57 0 0 1-2.19-2.326q-.758-1.494-.756-3.46-.002-1.965.757-3.46a5.54 5.54 0 0 1 2.189-2.314c.947-.554 2.063-.826 3.343-.826s2.39.277 3.343.825a5.45 5.45 0 0 1 2.178 2.316q.768 1.494.768 3.46t-.768 3.46a5.54 5.54 0 0 1-2.178 2.325q-1.423.822-3.343.82m.07-2.251q1.192-.001 1.999-.538c.539-.357.947-.862 1.214-1.512.272-.649.403-1.415.403-2.3q.001-2.043-.953-3.193c-.637-.766-1.574-1.155-2.81-1.155q-1.19.001-1.998.538c-.539.356-.947.862-1.214 1.511-.272.65-.403 1.416-.403 2.3q-.001 2.044.953 3.194c.637.766 1.573 1.155 2.81 1.155"/>
  </g>
</svg>
