<svg width="24" height="24" viewBox="0 0 24.2287 24" xmlns="http://www.w3.org/2000/svg">
  <!-- Yellow tile -->
  <path d="M1.06396 1.05115H23.225V23.1241H1.06396V1.05115Z" fill="#FFE500"/>
  
  <!-- Internal black mark (masked) -->
  <mask id="mask0_3097_13170" style="mask-type:luminance" maskUnits="userSpaceOnUse" x="0" y="0" width="25" height="24">
    <path d="M24.2287 0H0V24H24.2287V0Z" fill="white"/>
  </mask>
  <g mask="url(#mask0_3097_13170)">
    <path fill-rule="evenodd" clip-rule="evenodd" d="M5.50662 4.37875C5.3425 4.52459 5.32533 4.77331 5.4679 4.93991L9.35043 9.4771L8.62299 10.1515L5.25008 6.91581C5.11266 6.78398 4.89572 6.77988 4.75332 6.90641C4.60683 7.03658 4.59116 7.25845 4.71793 7.40755L8.16494 11.4617L7.42652 12.125L4.73523 9.39339C4.6333 9.28993 4.46715 9.28446 4.35852 9.38099C4.25318 9.47459 4.23777 9.63251 4.32306 9.74437L6.65579 12.8036C7.04281 13.3111 7.39051 13.847 7.69589 14.4065L7.93959 14.853C8.33765 13.9299 8.586 12.9474 8.67378 11.9425L8.67932 11.8793L9.6731 11.9645L9.66758 12.0277C9.55145 13.3567 9.18088 14.6507 8.57608 15.8394L13.4335 19.1965C14.1813 19.0643 14.8738 18.7314 15.4328 18.2348L15.4652 18.2059L16.1313 18.9414L16.0988 18.9703C15.5755 19.4354 14.96 19.7843 14.294 19.9991L17.4005 23.7363L16.6166 24.3474L13.2357 20.2646L7.65359 16.4066L6.81842 14.8765C6.53697 14.3608 6.21652 13.8669 5.85982 13.3991L3.52709 10.3399C3.12938 9.81833 3.20125 9.08192 3.69246 8.64546C3.85005 8.50542 4.03361 8.41142 4.22605 8.36289L3.95497 8.04406C3.48112 7.48675 3.53969 6.65742 4.08726 6.17088C4.32618 5.95859 4.62123 5.84467 4.92034 5.82817L4.70697 5.57882C4.21523 5.00417 4.27444 4.14624 4.84056 3.64322C5.39534 3.15027 6.24217 3.17227 6.7701 3.69334L6.93267 3.85379C6.96156 3.53188 7.10923 3.22023 7.37003 2.98851C7.87869 2.53654 8.65009 2.53913 9.15564 2.99451L12.7294 6.21363C12.8055 6.04562 12.9174 5.89086 13.0634 5.76112C13.5917 5.29174 14.3947 5.3012 14.9117 5.7829L17.8627 8.53327C18.3592 8.99603 18.6487 9.63593 18.667 10.311L18.7805 14.4989L22.5136 16.621L24.2357 17.1951V18.255L22.0824 17.5151L18.4115 15.4283C18.0675 16.0685 17.5715 16.6222 16.9604 17.0384L16.9035 17.0772L16.3382 16.263L16.3953 16.2243C17.0505 15.778 17.5366 15.1297 17.7794 14.3824L17.6698 10.3375C17.6587 9.92565 17.4821 9.53523 17.1792 9.25291L14.2281 6.50254C14.0886 6.37258 13.872 6.37002 13.7295 6.49666C13.5936 6.61742 13.5674 6.81856 13.668 6.96951L14.7644 8.61501L14.8859 9.56312L13.9511 9.85802L12.6858 7.50988L8.48455 3.72554C8.35759 3.61118 8.16384 3.61052 8.03609 3.72404C7.90348 3.84186 7.88735 4.04197 7.99941 4.17916L11.0823 7.95341L10.3425 8.61413L6.06603 4.39329C5.91298 4.24221 5.66746 4.23584 5.50662 4.37875ZM11.495 11.6944L11.1243 14.6877L10.1342 14.5674L10.505 11.5741L11.495 11.6944ZM13.9669 12.6152L14.3206 14.2574L13.3452 14.4636L12.9913 12.8214L13.9669 12.6152Z" fill="black"/>
  </g>

  <!-- Outer black keyline -->
  <path fill-rule="evenodd" clip-rule="evenodd" d="M0 0H24.2287V24H0V0ZM1.12691 1.11628V22.8837H23.1017V1.11628H1.12691Z" fill="black"/>
</svg>
