<svg xmlns="http://www.w3.org/2000/svg" xml:space="preserve" width="324px" height="361px" version="1.1"
     style="shape-rendering:geometricPrecision; text-rendering:geometricPrecision; image-rendering:optimizeQuality; fill-rule:evenodd; clip-rule:evenodd"
     viewBox="0 0 27.73 30.89">
 <defs>
  <style type="text/css">
   <![CDATA[
    .fil1 {fill:#47115F}
    .fil2 {fill:#FE9900}
    .fil0 {fill:#020202;fill-rule:nonzero}
   ]]>
  </style>
 </defs>
    <g id="x0020_1">
  <metadata id="CorelCorpID_0Corel-Layer"/>
        <path class="fil0"
              d="M25.69 7.9l0 0.8 -1.7 0.92 0 -1.23 -5.57 -3.22 0 -0.01 -5.58 -3.21 -5.57 3.21 0 0.01 -5.58 3.22 0 12.88 0.67 0.38 0 1.95 -2.36 -1.36 0 -14.83 6.42 -3.7 0.01 0 6.41 -3.71 6.42 3.71 0 0 6.43 3.7 0 0.49zm0 12.93l0 1.41 -6.43 3.71 0 0 -6.42 3.7 -2.45 -1.41 1.64 -1.01 0.81 0.48 5.58 -3.22 0 0 5.57 -3.22 0 -1.32 1.7 0.88z"/>
        <polygon class="fil1" points="3.07,9.73 22.85,20.24 3.32,30.89 "/>
        <polygon class="fil2" points="27.73,21 16.03,14.77 27.59,8.47 "/>
 </g>
</svg>