<svg width="100%" height="100%" viewBox="0 0 600 600" xmlns="http://www.w3.org/2000/svg"><defs><marker id="arrow-b30000" markerWidth="10" markerHeight="10" refX="9" refY="3" orient="auto" markerUnits="strokeWidth"><path d="M0,0 L0,6 L9,3 z" fill="#b30000"></path></marker><marker id="arrow-b35900" markerWidth="10" markerHeight="10" refX="9" refY="3" orient="auto" markerUnits="strokeWidth"><path d="M0,0 L0,6 L9,3 z" fill="#b35900"></path></marker><marker id="arrow-b3b300" markerWidth="10" markerHeight="10" refX="9" refY="3" orient="auto" markerUnits="strokeWidth"><path d="M0,0 L0,6 L9,3 z" fill="#b3b300"></path></marker><marker id="arrow-59b300" markerWidth="10" markerHeight="10" refX="9" refY="3" orient="auto" markerUnits="strokeWidth"><path d="M0,0 L0,6 L9,3 z" fill="#59b300"></path></marker><marker id="arrow-00b300" markerWidth="10" markerHeight="10" refX="9" refY="3" orient="auto" markerUnits="strokeWidth"><path d="M0,0 L0,6 L9,3 z" fill="#00b300"></path></marker><marker id="arrow-00b359" markerWidth="10" markerHeight="10" refX="9" refY="3" orient="auto" markerUnits="strokeWidth"><path d="M0,0 L0,6 L9,3 z" fill="#00b359"></path></marker><marker id="arrow-00b3b3" markerWidth="10" markerHeight="10" refX="9" refY="3" orient="auto" markerUnits="strokeWidth"><path d="M0,0 L0,6 L9,3 z" fill="#00b3b3"></path></marker><marker id="arrow-0059b3" markerWidth="10" markerHeight="10" refX="9" refY="3" orient="auto" markerUnits="strokeWidth"><path d="M0,0 L0,6 L9,3 z" fill="#0059b3"></path></marker><marker id="arrow-0000b3" markerWidth="10" markerHeight="10" refX="9" refY="3" orient="auto" markerUnits="strokeWidth"><path d="M0,0 L0,6 L9,3 z" fill="#0000b3"></path></marker><marker id="arrow-5900b3" markerWidth="10" markerHeight="10" refX="9" refY="3" orient="auto" markerUnits="strokeWidth"><path d="M0,0 L0,6 L9,3 z" fill="#5900b3"></path></marker><marker id="arrow-b300b3" markerWidth="10" markerHeight="10" refX="9" refY="3" orient="auto" markerUnits="strokeWidth"><path d="M0,0 L0,6 L9,3 z" fill="#b300b3"></path></marker><marker id="arrow-b30059" markerWidth="10" markerHeight="10" refX="9" refY="3" orient="auto" markerUnits="strokeWidth"><path d="M0,0 L0,6 L9,3 z" fill="#b30059"></path></marker></defs><line x1="70" y1="530" x2="530" y2="530" stroke="black"></line><line x1="70" y1="70" x2="70" y2="530" stroke="black"></line><text x="300" y="560" text-anchor="middle">Extra hints (including false positives) / Lines of code</text><text x="35" y="300" text-anchor="middle" transform="rotate(-90, 35, 300)">Found bugs / All bugs</text><line x1="70" y1="70" x2="70" y2="530" stroke="lightgray" stroke-dasharray="5,5"></line><text x="70" y="545" text-anchor="middle" font-size="10px">0.00</text><line x1="134.2207792207792" y1="70" x2="134.2207792207792" y2="530" stroke="lightgray" stroke-dasharray="5,5"></line><text x="134.2207792207792" y="545" text-anchor="middle" font-size="10px">0.02</text><line x1="198.44155844155844" y1="70" x2="198.44155844155844" y2="530" stroke="lightgray" stroke-dasharray="5,5"></line><text x="198.44155844155844" y="545" text-anchor="middle" font-size="10px">0.04</text><line x1="262.6623376623377" y1="70" x2="262.6623376623377" y2="530" stroke="lightgray" stroke-dasharray="5,5"></line><text x="262.6623376623377" y="545" text-anchor="middle" font-size="10px">0.06</text><line x1="326.8831168831169" y1="70" x2="326.8831168831169" y2="530" stroke="lightgray" stroke-dasharray="5,5"></line><text x="326.8831168831169" y="545" text-anchor="middle" font-size="10px">0.08</text><line x1="391.1038961038961" y1="70" x2="391.1038961038961" y2="530" stroke="lightgray" stroke-dasharray="5,5"></line><text x="391.1038961038961" y="545" text-anchor="middle" font-size="10px">0.10</text><line x1="455.3246753246753" y1="70" x2="455.3246753246753" y2="530" stroke="lightgray" stroke-dasharray="5,5"></line><text x="455.3246753246753" y="545" text-anchor="middle" font-size="10px">0.12</text><line x1="519.5454545454545" y1="70" x2="519.5454545454545" y2="530" stroke="lightgray" stroke-dasharray="5,5"></line><text x="519.5454545454545" y="545" text-anchor="middle" font-size="10px">0.14</text><line x1="70" y1="530" x2="530" y2="530" stroke="lightgray" stroke-dasharray="5,5"></line><text x="60" y="533" text-anchor="end" font-size="10px">0.00</text><line x1="70" y1="484" x2="530" y2="484" stroke="lightgray" stroke-dasharray="5,5"></line><text x="60" y="487" text-anchor="end" font-size="10px">0.10</text><line x1="70" y1="438" x2="530" y2="438" stroke="lightgray" stroke-dasharray="5,5"></line><text x="60" y="441" text-anchor="end" font-size="10px">0.20</text><line x1="70" y1="392" x2="530" y2="392" stroke="lightgray" stroke-dasharray="5,5"></line><text x="60" y="395" text-anchor="end" font-size="10px">0.30</text><line x1="70" y1="346" x2="530" y2="346" stroke="lightgray" stroke-dasharray="5,5"></line><text x="60" y="349" text-anchor="end" font-size="10px">0.40</text><line x1="70" y1="300" x2="530" y2="300" stroke="lightgray" stroke-dasharray="5,5"></line><text x="60" y="303" text-anchor="end" font-size="10px">0.50</text><line x1="70" y1="253.99999999999994" x2="530" y2="253.99999999999994" stroke="lightgray" stroke-dasharray="5,5"></line><text x="60" y="256.99999999999994" text-anchor="end" font-size="10px">0.60</text><line x1="70" y1="207.99999999999994" x2="530" y2="207.99999999999994" stroke="lightgray" stroke-dasharray="5,5"></line><text x="60" y="210.99999999999994" text-anchor="end" font-size="10px">0.70</text><line x1="70" y1="162" x2="530" y2="162" stroke="lightgray" stroke-dasharray="5,5"></line><text x="60" y="165" text-anchor="end" font-size="10px">0.80</text><line x1="70" y1="116" x2="530" y2="116" stroke="lightgray" stroke-dasharray="5,5"></line><text x="60" y="119" text-anchor="end" font-size="10px">0.90</text><line x1="70" y1="70" x2="530" y2="70" stroke="lightgray" stroke-dasharray="5,5"></line><text x="60" y="73" text-anchor="end" font-size="10px">1.00</text><line x1="174.54545454545456" y1="135.71428571428572" x2="156.69805194805195" y2="91.94200000000001" stroke="#00b300" stroke-width="2" marker-end="url(#arrow-00b300)"></line><g class="point-ARMUR"><line x1="358.7445887445887" y1="289.04761904761904" x2="373.7445887445887" y2="289.04761904761904" stroke="#b30000" stroke-width="1"></line><circle cx="358.7445887445887" cy="289.04761904761904" r="4" fill="#b30000"></circle><rect x="373.7445887445887" y="277.33668154761904" width="54" height="23.421875" fill="none" stroke="#b30000" rx="3" ry="3"></rect><text x="400.7445887445887" y="289.04761904761904" text-anchor="middle" dominant-baseline="central" font-family="Arial" font-size="12px" fill="#b30000">ARMUR</text></g><g class="point-Aegis"><line x1="448.3549783549783" y1="464.2857142857143" x2="463.3549783549783" y2="464.2857142857143" stroke="#b35900" stroke-width="1"></line><circle cx="448.3549783549783" cy="464.2857142857143" r="4" fill="#b35900"></circle><rect x="463.3549783549783" y="452.5747767857143" width="40.03125" height="23.421875" fill="none" stroke="#b35900" rx="3" ry="3"></rect><text x="483.3706033549783" y="464.2857142857143" text-anchor="middle" dominant-baseline="central" font-family="Arial" font-size="12px" fill="#b35900">Aegis</text></g><g class="point-deepseek_r1"><line x1="294.025974025974" y1="332.8571428571429" x2="309.025974025974" y2="332.8571428571429" stroke="#b3b300" stroke-width="1"></line><circle cx="294.025974025974" cy="332.8571428571429" r="4" fill="#b3b300"></circle><rect x="309.025974025974" y="321.1462053571429" width="79.390625" height="23.421875" fill="none" stroke="#b3b300" rx="3" ry="3"></rect><text x="348.721286525974" y="332.8571428571429" text-anchor="middle" dominant-baseline="central" font-family="Arial" font-size="12px" fill="#b3b300">deepseek_r1</text></g><g class="point-openai_o3_mini"><line x1="274.1125541125541" y1="332.8571428571429" x2="259.1125541125541" y2="347.8571428571429" stroke="#59b300" stroke-width="1"></line><circle cx="274.1125541125541" cy="332.8571428571429" r="4" fill="#59b300"></circle><rect x="164.3781791125541" y="347.8571428571429" width="94.734375" height="23.421875" fill="none" stroke="#59b300" rx="3" ry="3" stroke-width="1"></rect><text x="211.7453666125541" y="359.5680803571429" text-anchor="middle" dominant-baseline="central" font-family="Arial" font-size="12px" fill="#59b300">openai_o3_mini</text></g><g class="point-savant.chat-v0.1"><line x1="174.54545454545456" y1="135.71428571428572" x2="189.54545454545456" y2="135.71428571428572" stroke="#00b300" stroke-width="1"></line><circle cx="174.54545454545456" cy="135.71428571428572" r="4" fill="#00b300"></circle><rect x="189.54545454545456" y="124.00334821428572" width="97.390625" height="23.421875" fill="none" stroke="#00b300" rx="3" ry="3"></rect><text x="238.24076704545456" y="135.71428571428572" text-anchor="middle" dominant-baseline="central" font-family="Arial" font-size="12px" fill="#00b300">savant.chat v0.1</text></g><g class="point-openai_o3_mini_high"><line x1="249.2207792207792" y1="332.8571428571429" x2="249.2207792207792" y2="309.92706420576536" stroke="#00b359" stroke-width="1"></line><circle cx="249.2207792207792" cy="332.8571428571429" r="4" fill="#00b359"></circle><rect x="207.1739042207792" y="286.50518920576536" width="124.09375" height="23.421875" fill="none" stroke="#00b359" rx="3" ry="3" stroke-width="1"></rect><text x="269.2207792207792" y="298.21612670576536" text-anchor="middle" dominant-baseline="central" font-family="Arial" font-size="12px" fill="#00b359">openai_o3_mini_high</text></g><g class="point-AuditOne"><line x1="159.6103896103896" y1="486.1904761904762" x2="174.6103896103896" y2="486.1904761904762" stroke="#00b3b3" stroke-width="1"></line><circle cx="159.6103896103896" cy="486.1904761904762" r="4" fill="#00b3b3"></circle><rect x="174.6103896103896" y="474.4795386904762" width="60.046875" height="23.421875" fill="none" stroke="#00b3b3" rx="3" ry="3"></rect><text x="204.6338271103896" y="486.1904761904762" text-anchor="middle" dominant-baseline="central" font-family="Arial" font-size="12px" fill="#00b3b3">AuditOne</text></g><g class="point-QuillShield"><line x1="99.87012987012987" y1="464.2857142857143" x2="114.87012987012987" y2="449.2857142857143" stroke="#0059b3" stroke-width="1"></line><circle cx="99.87012987012987" cy="464.2857142857143" r="4" fill="#0059b3"></circle><rect x="114.87012987012987" y="425.8638392857143" width="67.375" height="23.421875" fill="none" stroke="#0059b3" rx="3" ry="3"></rect><text x="148.55762987012986" y="437.5747767857143" text-anchor="middle" dominant-baseline="central" font-family="Arial" font-size="12px" fill="#0059b3">QuillShield</text></g><g class="point-SCAU"><line x1="234.28571428571428" y1="530" x2="249.28571428571428" y2="515" stroke="#0000b3" stroke-width="1"></line><circle cx="234.28571428571428" cy="530" r="4" fill="#0000b3"></circle><rect x="249.28571428571428" y="491.578125" width="43.34375" height="23.421875" fill="none" stroke="#0000b3" rx="3" ry="3"></rect><text x="270.9575892857143" y="503.2890625" text-anchor="middle" dominant-baseline="central" font-family="Arial" font-size="12px" fill="#0000b3">SCAU</text></g><g class="point-Code-Genie-AI"><line x1="144.67532467532467" y1="376.6666666666667" x2="144.67532467532467" y2="391.6666666666667" stroke="#5900b3" stroke-width="1"></line><circle cx="144.67532467532467" cy="376.6666666666667" r="4" fill="#5900b3"></circle><rect x="100.31594967532467" y="391.6666666666667" width="88.71875" height="23.421875" fill="none" stroke="#5900b3" rx="3" ry="3" stroke-width="1"></rect><text x="144.67532467532467" y="403.3776041666667" text-anchor="middle" dominant-baseline="central" font-family="Arial" font-size="12px" fill="#5900b3">Code Genie AI</text></g><g class="point-grok-3-thinking"><line x1="189.4805194805195" y1="289.04761904761904" x2="174.4805194805195" y2="289.04761904761904" stroke="#b300b3" stroke-width="1"></line><circle cx="189.4805194805195" cy="289.04761904761904" r="4" fill="#b300b3"></circle><rect x="86.43364448051949" y="277.33668154761904" width="88.046875" height="23.421875" fill="none" stroke="#b300b3" rx="3" ry="3"></rect><text x="130.4570819805195" y="289.04761904761904" text-anchor="middle" dominant-baseline="central" font-family="Arial" font-size="12px" fill="#b300b3">grok 3 thinking</text></g><g class="point-slither"><line x1="488.1818181818182" y1="420.4761904761905" x2="473.1818181818182" y2="420.4761904761905" stroke="#b30059" stroke-width="1"></line><circle cx="488.1818181818182" cy="420.4761904761905" r="4" fill="#b30059"></circle><rect x="431.1661931818182" y="408.7652529761905" width="42.015625" height="23.421875" fill="none" stroke="#b30059" rx="3" ry="3"></rect><text x="452.1740056818182" y="420.4761904761905" text-anchor="middle" dominant-baseline="central" font-family="Arial" font-size="12px" fill="#b30059">slither</text></g><g class="point-savant.chat-v0.2"><line x1="156.69805194805195" y1="91.94200000000001" x2="171.69805194805195" y2="91.94200000000001" stroke="#00b300" stroke-width="1"></line><circle cx="156.69805194805195" cy="91.94200000000001" r="4" fill="#00b300"></circle><rect x="171.69805194805195" y="80.23106250000001" width="97.390625" height="23.421875" fill="none" stroke="#00b300" rx="3" ry="3"></rect><text x="220.39336444805195" y="91.94200000000001" text-anchor="middle" dominant-baseline="central" font-family="Arial" font-size="12px" fill="#00b300">savant.chat v0.2</text></g><g><rect fill="#333" rx="3" opacity="0.8" visibility="hidden" x="280" y="271.078125" width="205.484375" height="18.421875"></rect><text fill="white" font-size="12px" text-anchor="start" visibility="hidden" x="285" y="282">openai_o3_mini_high: (0.056, 0.429)</text></g></svg>
