<svg width="28" height="31" viewBox="0 0 28 31" fill="none" xmlns="http://www.w3.org/2000/svg">
<g clip-path="url(#clip0_2772_30858)">
<path d="M26.9232 8.31543L13.9902 15.582V30.2509L27.1449 22.8729L26.9232 8.31543Z" fill="url(#paint0_linear_2772_30858)"/>
<path d="M13.9899 30.9097C13.574 30.9097 13.1608 30.8034 12.7893 30.594L1.22897 24.0433C0.488613 23.6242 0.0283203 22.843 0.0283203 22.0021V8.90069C0.0283203 8.06251 0.488613 7.27863 1.22897 6.85958L12.7893 0.31434C13.5296 -0.10478 14.4502 -0.10478 15.1906 0.31434L26.7509 6.86502C27.4912 7.28416 27.9515 8.0652 27.9515 8.90622V22.0075C27.9515 22.8458 27.4912 23.6295 26.7509 24.0486L15.1906 30.5993C14.8217 30.809 14.4058 30.915 13.9899 30.915V30.9097ZM13.9899 1.5744C13.854 1.5744 13.7154 1.60977 13.5935 1.67782L2.03312 8.22857C1.78911 8.36732 1.6366 8.62588 1.6366 8.90069V22.0021C1.6366 22.2796 1.78911 22.5355 2.03312 22.6742L13.5935 29.225C13.8374 29.3639 14.1424 29.3639 14.3865 29.225L25.9467 22.6742C26.1907 22.5355 26.3432 22.2769 26.3432 22.0021V8.90069C26.3432 8.62319 26.1907 8.36732 25.9467 8.22857L14.3865 1.67782C14.2644 1.60977 14.1285 1.5744 13.9899 1.5744Z" fill="#FF6C1A"/>
<path d="M13.99 24.1302C13.7015 24.1302 13.416 24.0566 13.158 23.9123L6.94118 20.3908C6.4283 20.0995 6.10938 19.5579 6.10938 18.9783V11.9323C6.10938 11.35 6.4283 10.8111 6.94118 10.5198L13.158 6.9982C13.6711 6.70698 14.3088 6.70698 14.8218 6.9982L21.0387 10.5198C21.5517 10.8111 21.8705 11.3527 21.8705 11.9323V18.9783C21.8705 19.5579 21.5517 20.0995 21.0387 20.3908L14.8218 23.9123C14.5667 24.0566 14.2784 24.1302 13.99 24.1302ZM13.99 8.35622C13.99 8.35622 13.9705 8.35621 13.9622 8.36443L7.74533 11.886C7.72877 11.8969 7.71767 11.9132 7.71767 11.9323V18.9783C7.71767 18.9974 7.72877 19.0137 7.74533 19.0246L13.9622 22.5462C13.9789 22.5571 13.9982 22.5544 14.0149 22.5462L20.2318 19.0246C20.2484 19.0164 20.2594 18.9974 20.2594 18.9783V11.9323C20.2594 11.9132 20.2484 11.8969 20.2318 11.886L14.0149 8.36443C14.0149 8.36443 13.9982 8.35622 13.9871 8.35622H13.99Z" fill="#FF6C1A"/>
<path d="M12.6416 14.9043V16.001C12.6416 16.1344 12.7137 16.2569 12.8301 16.3221L13.7978 16.8719C13.9142 16.9372 14.0585 16.9372 14.1749 16.8719L15.1427 16.3221C15.2591 16.2569 15.3313 16.1344 15.3313 16.001V14.9043C15.3313 14.7709 15.2591 14.6484 15.1427 14.5831L14.1749 14.0333C14.0585 13.9681 13.9142 13.9681 13.7978 14.0333L12.8301 14.5831C12.7137 14.6484 12.6416 14.7709 12.6416 14.9043Z" fill="#FF6C1A"/>
<path d="M26.5294 7.5083L13.5479 14.7727L14.3445 16.1439L27.3259 8.87951L26.5294 7.5083Z" fill="#FF6C1A"/>
</g>
<defs>
<linearGradient id="paint0_linear_2772_30858" x1="20.5677" y1="27.894" x2="20.5677" y2="7.26495" gradientUnits="userSpaceOnUse">
<stop stop-color="#FF6C1A" stop-opacity="0"/>
<stop offset="1" stop-color="#FF6C1A"/>
</linearGradient>
<clipPath id="clip0_2772_30858">
<rect width="28" height="31" fill="white"/>
</clipPath>
</defs>
</svg>
