<svg width="42" height="48" viewBox="0 0 42 48" fill="none" xmlns="http://www.w3.org/2000/svg">
<g clip-path="url(#clip0_2884_25933)">
<path d="M40.3418 12.8755L20.9424 24.1269V46.84L40.6744 35.416L40.3418 12.8755Z" fill="url(#paint0_linear_2884_25933)"/>
<path d="M20.9424 47.8602C20.3185 47.8602 19.6988 47.6957 19.1412 47.3713L1.80101 37.2283C0.690439 36.5794 0 35.3698 0 34.0678V13.7817C0 12.4839 0.690439 11.2701 1.80101 10.6213L19.1412 0.48672C20.2519 -0.16224 21.6328 -0.16224 22.7433 0.48672L40.0839 10.6297C41.1943 11.2787 41.8848 12.488 41.8848 13.7903V34.0761C41.8848 35.3742 41.1943 36.5877 40.0839 37.2366L22.7433 47.3796C22.1901 47.7042 21.5662 47.8685 20.9424 47.8685V47.8602ZM20.9424 2.43778C20.7385 2.43778 20.5306 2.49255 20.3475 2.59792L3.00723 12.741C2.64121 12.9558 2.41241 13.3562 2.41241 13.7817V34.0678C2.41241 34.4975 2.64121 34.8937 3.00723 35.1085L20.3475 45.2515C20.7137 45.4666 21.1711 45.4666 21.5373 45.2515L38.8777 35.1085C39.2436 34.8937 39.4723 34.4933 39.4723 34.0678V13.7817C39.4723 13.352 39.2436 12.9558 38.8777 12.741L21.5373 2.59792C21.3542 2.49255 21.1503 2.43778 20.9424 2.43778Z" fill="white"/>
<path d="M20.9423 37.3632C20.5095 37.3632 20.0813 37.2493 19.6943 37.0259L10.369 31.5731C9.59947 31.1222 9.12134 30.2836 9.12134 29.3861V18.4761C9.12134 17.5742 9.59947 16.7401 10.369 16.2891L19.6943 10.8362C20.4639 10.3853 21.4204 10.3853 22.19 10.8362L31.5153 16.2891C32.2848 16.7401 32.763 17.5786 32.763 18.4761V29.3861C32.763 30.2836 32.2848 31.1222 31.5153 31.5731L22.19 37.0259C21.8074 37.2493 21.3748 37.3632 20.9423 37.3632ZM20.9423 12.939C20.9423 12.939 20.9131 12.939 20.9005 12.9517L11.5753 18.4045C11.5504 18.4214 11.5338 18.4465 11.5338 18.4761V29.3861C11.5338 29.4157 11.5504 29.4409 11.5753 29.4577L20.9005 34.9105C20.9256 34.9274 20.9546 34.9232 20.9797 34.9105L30.305 29.4577C30.3298 29.445 30.3464 29.4157 30.3464 29.3861V18.4761C30.3464 18.4465 30.3298 18.4214 30.305 18.4045L20.9797 12.9517C20.9797 12.9517 20.9546 12.939 20.9379 12.939H20.9423Z" fill="white"/>
<path d="M18.9194 23.0777V24.7758C18.9194 24.9824 19.0278 25.172 19.2024 25.273L20.654 26.1243C20.8286 26.2255 21.045 26.2255 21.2197 26.1243L22.6713 25.273C22.8459 25.172 22.9542 24.9824 22.9542 24.7758V23.0777C22.9542 22.8712 22.8459 22.6815 22.6713 22.5803L21.2197 21.729C21.045 21.6281 20.8286 21.6281 20.654 21.729L19.2024 22.5803C19.0278 22.6815 18.9194 22.8712 18.9194 23.0777Z" fill="white"/>
<path d="M39.7529 11.626L20.2808 22.8741L21.4757 24.9972L40.9478 13.7491L39.7529 11.626Z" fill="white"/>
</g>
<defs>
<linearGradient id="paint0_linear_2884_25933" x1="30.8085" y1="43.1907" x2="30.8085" y2="11.2489" gradientUnits="userSpaceOnUse">
<stop stop-color="#FF6C1A" stop-opacity="0"/>
<stop offset="1" stop-color="#FF6C1A"/>
</linearGradient>
<clipPath id="clip0_2884_25933">
<rect width="42" height="48" fill="white"/>
</clipPath>
</defs>
</svg>
