<svg width="279" height="80" viewBox="0 0 279 80" fill="none" xmlns="http://www.w3.org/2000/svg">
<g clip-path="url(#clip0_2741_28786)">
<path d="M145.829 32.3154L133.364 39.582V54.2509L146.042 46.8729L145.829 32.3154Z" fill="url(#paint0_linear_2741_28786)"/>
<path d="M133.364 54.9096C132.963 54.9096 132.565 54.8034 132.207 54.594L121.065 48.0432C120.352 47.6241 119.908 46.8429 119.908 46.0021V32.9007C119.908 32.0625 120.352 31.2786 121.065 30.8595L132.207 24.3143C132.92 23.8952 133.808 23.8952 134.521 24.3143L145.663 30.865C146.376 31.2841 146.82 32.0652 146.82 32.9062V46.0075C146.82 46.8458 146.376 47.6295 145.663 48.0486L134.521 54.5993C134.166 54.8089 133.765 54.915 133.364 54.915V54.9096ZM133.364 25.5744C133.233 25.5744 133.099 25.6098 132.982 25.6778L121.84 32.2285C121.605 32.3673 121.458 32.6258 121.458 32.9007V46.0021C121.458 46.2796 121.605 46.5355 121.84 46.6742L132.982 53.2249C133.217 53.3638 133.511 53.3638 133.746 53.2249L144.888 46.6742C145.123 46.5355 145.27 46.2769 145.27 46.0021V32.9007C145.27 32.6232 145.123 32.3673 144.888 32.2285L133.746 25.6778C133.629 25.6098 133.498 25.5744 133.364 25.5744Z" fill="black"/>
<path d="M133.364 48.1306C133.086 48.1306 132.81 48.0571 132.562 47.9128L126.57 44.3912C126.076 44.1 125.769 43.5584 125.769 42.9788V35.9327C125.769 35.3503 126.076 34.8115 126.57 34.5203L132.562 30.9987C133.056 30.7075 133.671 30.7075 134.165 30.9987L140.157 34.5203C140.651 34.8115 140.959 35.3531 140.959 35.9327V42.9788C140.959 43.5584 140.651 44.1 140.157 44.3912L134.165 47.9128C133.92 48.0571 133.641 48.1306 133.364 48.1306ZM133.364 32.3567C133.364 32.3567 133.345 32.3567 133.337 32.3649L127.345 35.8865C127.329 35.8974 127.319 35.9136 127.319 35.9327V42.9788C127.319 42.9979 127.329 43.0141 127.345 43.025L133.337 46.5466C133.353 46.5575 133.372 46.5548 133.388 46.5466L139.379 43.025C139.395 43.0168 139.406 42.9979 139.406 42.9788V35.9327C139.406 35.9136 139.395 35.8974 139.379 35.8865L133.388 32.3649C133.388 32.3649 133.372 32.3567 133.361 32.3567H133.364Z" fill="black"/>
<path d="M132.064 38.9043V40.001C132.064 40.1344 132.134 40.2569 132.246 40.3221L133.179 40.8719C133.291 40.9372 133.43 40.9372 133.542 40.8719L134.475 40.3221C134.587 40.2569 134.657 40.1344 134.657 40.001V38.9043C134.657 38.7709 134.587 38.6484 134.475 38.5831L133.542 38.0333C133.43 37.9681 133.291 37.9681 133.179 38.0333L132.246 38.5831C132.134 38.6484 132.064 38.7709 132.064 38.9043Z" fill="black"/>
<path d="M145.45 31.5083L132.939 38.7727L133.706 40.1439L146.218 32.8795L145.45 31.5083Z" fill="black"/>
<path d="M173.977 40.2328C175.508 40.0259 176.938 39.3102 178.044 38.1862C178.798 37.4187 179.378 36.4771 179.722 35.4647L179.811 35.1926C179.84 35.0945 179.867 34.9938 179.893 34.8931C179.942 34.6945 179.984 34.4876 180.016 34.289C180.027 34.2373 180.035 34.1883 180.04 34.1448C180.056 34.0276 180.07 33.908 180.08 33.7855C180.094 33.6685 180.102 33.5432 180.107 33.4236C180.112 33.312 180.115 33.203 180.115 33.0914C180.115 32.9663 180.112 32.8438 180.107 32.7214C180.027 31.1647 179.474 29.7086 178.512 28.5302C178.49 28.4976 178.466 28.4704 178.458 28.4622C177.111 26.8266 175.136 25.8877 173.038 25.8877H159.896V39.928V40.0259V53.1518H161.494V40.298H172.143L179.006 53.1518H180.829L173.977 40.2328ZM161.494 27.4742H173.001C174.554 27.4742 176.042 28.1438 177.093 29.3248C177.686 29.9237 178.1 30.6503 178.319 31.4749C178.362 31.6545 178.431 31.9729 178.445 32.0654C178.48 32.3295 178.52 32.6779 178.52 33.0452C178.52 33.135 178.52 33.2275 178.512 33.3202C178.509 33.3909 178.504 33.4643 178.498 33.5487C178.498 33.6085 178.49 33.6712 178.482 33.731L178.477 33.7882C178.456 33.9814 178.429 34.161 178.391 34.338C178.381 34.3897 178.37 34.4387 178.354 34.4958L178.322 34.6237C178.311 34.6754 178.298 34.7244 178.279 34.7761C178.258 34.8524 178.234 34.9285 178.207 35.0074C178.188 35.0674 178.167 35.1299 178.14 35.1926C178.1 35.2933 178.057 35.394 178.001 35.5109C177.961 35.5981 177.918 35.677 177.878 35.7559C177.854 35.7995 177.83 35.8402 177.796 35.8947C177.75 35.9763 177.699 36.0607 177.64 36.1423C177.59 36.2186 177.539 36.292 177.475 36.3736C177.309 36.6132 177.117 36.8471 176.9 37.065C175.858 38.1263 174.474 38.7115 173.001 38.7115H161.494V27.4742Z" fill="black"/>
<path d="M197.677 25.8848H196.081V53.149H197.677V25.8848Z" fill="black"/>
<path d="M96.8434 39.5196L108.562 53.149H106.467L95.7958 40.7415L85.1246 53.149H83.0268L94.7481 39.5169L83.0242 25.8848H85.1193L95.7958 38.303L106.47 25.8848H108.565L96.8434 39.5196Z" fill="black"/>
<path d="M226.181 25.5391C218.614 25.5391 212.453 31.8094 212.453 39.5169C212.453 47.2241 218.614 53.4972 226.181 53.4972C233.751 53.4972 239.91 47.2268 239.91 39.5169C239.91 31.8068 233.752 25.5391 226.181 25.5391ZM226.181 51.9107C219.471 51.9107 214.015 46.3506 214.015 39.5169C214.015 32.6831 219.471 27.1258 226.181 27.1258C232.892 27.1258 238.353 32.6858 238.353 39.5169C238.353 46.3478 232.892 51.9107 226.181 51.9107Z" fill="black"/>
<path d="M59.7256 25.5391C52.1573 25.5391 46 31.8094 46 39.5169C46 47.2241 52.1573 53.4972 59.7256 53.4972C67.2941 53.4972 73.454 47.2268 73.454 39.5169C73.454 31.8068 67.2967 25.5391 59.7256 25.5391ZM59.7256 51.9107C53.0179 51.9107 47.5581 46.3506 47.5581 39.5169C47.5581 32.6831 53.0179 27.1258 59.7256 27.1258C66.4335 27.1258 71.896 32.6831 71.896 39.5169C71.896 46.3506 66.4361 51.9107 59.7256 51.9107Z" fill="black"/>
</g>
<defs>
<linearGradient id="paint0_linear_2741_28786" x1="139.703" y1="51.894" x2="139.703" y2="31.2649" gradientUnits="userSpaceOnUse">
<stop stop-color="#FF6C1A" stop-opacity="0"/>
<stop offset="1" stop-color="#FF6C1A"/>
</linearGradient>
<clipPath id="clip0_2741_28786">
<rect width="194" height="31" fill="black" transform="translate(46 24)"/>
</clipPath>
</defs>
</svg>
