<?xml version="1.0" encoding="UTF-8"?> <svg xmlns="http://www.w3.org/2000/svg" xmlns:xlink="http://www.w3.org/1999/xlink" version="1.1" id="Layer_1" x="0px" y="0px" viewBox="0 0 240.6 240.6" style="enable-background:new 0 0 240.6 240.6;" xml:space="preserve"> <style type="text/css"> .st0{fill:#1C1E21;} .st1{fill:#29C278;} </style> <g> <rect y="0" class="st0" width="240.6" height="240.6"></rect> </g> <g id="MixBytes-logo-Copy_1_" transform="translate(120.000000, 406.000000)"> <g> <polygon id="Shape_10_" class="st1" points="-56.5,-339.5 -56.3,-345.9 -56.7,-345.9 -63.2,-335.1 -64.7,-335.1 -71.5,-345.9 -71.9,-345.9 -71.5,-340.1 -71.5,-317.5 -79.1,-317.5 -79.1,-358.7 -70.9,-358.7 -63.9,-347.4 -63.6,-347.4 -56.7,-358.7 -48.5,-358.7 -48.5,-317.5 -56.5,-317.5 "></polygon> <path id="Shape_9_" class="st1" d="M-42.6-324h10.4v-16.5h-10.4v-6.5h18v22.9h10.9v6.5h-29L-42.6-324L-42.6-324z M-33.7-355 c0-1.2,0.4-2.3,1.3-3.1c0.9-0.8,2.1-1.3,3.7-1.3s2.9,0.4,4,1.3c0.9,0.8,1.5,1.9,1.5,3.1s-0.5,2.3-1.5,3.1c-0.9,0.8-2.3,1.2-4,1.2 c-1.6,0-2.8-0.4-3.7-1.2C-33.2-352.7-33.7-353.8-33.7-355z"></path> <polygon id="Shape_8_" class="st1" points="1.6,-332.7 -8.6,-347 0.6,-347 7.2,-337.1 14.2,-347 22.5,-347 12.4,-332.8 23,-317.5 14.2,-317.5 6.7,-328.3 -0.9,-317.5 -9.3,-317.5 "></polygon> </g> <path id="Shape_7_" class="st1" d="M-51.5-300.1c0,1.1-0.1,2-0.4,3.1c-0.3,1.1-0.7,2-1.2,2.8s-1.3,1.6-2.3,2.3 c-0.9,0.7-2.1,1.1-3.5,1.5v0.4c1.2,0.1,2.3,0.5,3.3,1.1s2,1.1,2.8,2c0.8,0.8,1.5,1.9,1.9,3.1s0.7,2.5,0.7,4.1c0,2.1-0.4,4-1.3,5.5 c-0.9,1.6-2.1,2.8-3.6,3.7c-1.5,0.9-3.2,1.7-5.2,2.1c-1.9,0.5-3.9,0.7-6,0.7c-0.7,0-1.5,0-2.5,0s-2.1,0-3.3-0.1 c-1.2,0-2.4-0.1-3.6-0.3c-1.2-0.1-2.4-0.3-3.3-0.5v-40.7c0.8-0.1,1.6-0.3,2.5-0.4s2-0.3,3.1-0.3c1.1-0.1,2.3-0.1,3.3-0.1 c1.2,0,2.3,0,3.5,0c1.9,0,3.7,0.1,5.6,0.4c1.9,0.3,3.5,0.8,4.9,1.6c1.5,0.8,2.5,1.7,3.5,3.1C-51.9-303.9-51.5-302.1-51.5-300.1z M-68.9-292.4c0.5,0,1.2,0,2,0s1.3-0.1,1.9-0.1c1.5-0.5,2.8-1.2,4-2.1c1.1-0.9,1.6-2.1,1.6-3.7c0-1.1-0.3-1.9-0.7-2.5 s-0.9-1.2-1.6-1.6c-0.7-0.4-1.5-0.7-2.3-0.8c-0.8-0.1-1.7-0.3-2.7-0.3c-1.1,0-2,0-2.9,0s-1.6,0.1-2,0.1v10.9L-68.9-292.4 L-68.9-292.4z M-66.3-274.6c0.9,0,2-0.1,2.8-0.4c0.9-0.3,1.7-0.5,2.4-1.1c0.7-0.5,1.3-1.1,1.7-1.9s0.7-1.6,0.7-2.7 c0-1.3-0.3-2.3-0.8-3.1c-0.5-0.8-1.2-1.3-2-1.7c-0.8-0.4-1.7-0.7-2.8-0.8c-1.1-0.1-2-0.1-3.1-0.1h-4.3v11.2 c0.1,0.1,0.5,0.1,0.9,0.1s0.9,0,1.3,0.1c0.5,0,1.1,0,1.5,0C-67.2-274.6-66.7-274.6-66.3-274.6z"></path> <path id="Shape_6_" class="st1" d="M-29.8-276.8h2.3l5.7-21.2h7.9l-8.4,26.5c-0.8,2.1-1.5,4.3-2.1,6c-0.7,1.9-1.6,3.5-2.5,4.8 s-2,2.4-3.3,3.1s-2.8,1.1-4.7,1.1c-0.9,0-1.7-0.1-2.5-0.4s-1.6-0.5-2.3-0.8c-0.7-0.4-1.2-0.7-1.7-1.1s-0.9-0.7-1.2-1.1l4-5.2 c0.5,0.4,1.1,0.8,1.9,1.2c0.7,0.4,1.3,0.5,2,0.5c1.2,0,2.1-0.4,2.8-1.2c0.7-0.8,1.3-2.1,2-4H-34L-46.5-298h8.3L-29.8-276.8z"></path> <path id="Shape_5_" class="st1" d="M-5.3-291.5h-5.9v-6.5h5.9v-6.7l7.6-2.1v8.9h15.5v6.5H2.3v8.4c0,3.1,0.5,5.2,1.7,6.5 s2.7,2,4.8,2c1.1,0,2-0.1,2.9-0.4c0.8-0.3,1.6-0.5,2.3-0.9s1.3-0.8,1.9-1.3c0.5-0.5,1.1-0.9,1.6-1.3L21-273 c-0.7,0.8-1.5,1.5-2.5,2.1c-1.1,0.7-2.1,1.2-3.2,1.7c-1.2,0.5-2.4,0.9-3.6,1.2c-1.2,0.3-2.5,0.4-3.7,0.4c-4.4,0-7.7-1.2-9.9-3.7 c-2.3-2.4-3.3-6.4-3.3-11.7L-5.3-291.5L-5.3-291.5L-5.3-291.5z"></path> <path id="Shape_4_" class="st1" d="M54.6-271.6c-0.5,0.5-1.2,0.9-2,1.3s-1.7,0.9-2.8,1.3s-2.3,0.7-3.6,0.9 c-1.3,0.3-2.7,0.4-4.1,0.4c-2.5,0-4.8-0.4-6.8-1.1s-3.6-1.7-5.1-3.1c-1.3-1.3-2.4-2.9-3.2-4.9c-0.8-1.9-1.1-4-1.1-6.5 s0.4-4.8,1.2-6.8s2-3.6,3.3-4.8c1.5-1.3,3.1-2.3,5.1-2.9c1.9-0.7,4-0.9,6.3-0.9c1.5,0,3.1,0.1,4.7,0.5s3.1,1.1,4.4,2 s2.4,2.3,3.2,3.9s1.3,3.6,1.3,6.1c0,1.7-0.1,3.5-0.5,5.5H33.8c0,1.2,0.3,2.3,0.8,3.2c0.5,0.8,1.2,1.6,2,2.1s1.7,0.9,2.8,1.2 c1.1,0.3,2.1,0.4,3.3,0.4c2.4,0,4.3-0.3,5.7-0.8s2.8-1.2,3.7-2L54.6-271.6z M41.9-292.7c-1.1,0-2,0.1-2.9,0.4s-1.7,0.7-2.4,1.2 s-1.3,1.2-1.7,2c-0.5,0.8-0.8,1.7-0.8,2.7h14.4c0-2-0.5-3.5-1.6-4.7C45.8-292.1,44.1-292.7,41.9-292.7z"></path> <path id="Shape_3_" class="st1" d="M82.2-276.6c0-0.8-0.5-1.5-1.5-1.9c-0.9-0.5-2.1-0.9-3.6-1.3s-2.9-0.8-4.7-1.2s-3.2-0.9-4.7-1.7 c-1.5-0.7-2.7-1.6-3.6-2.8c-0.9-1.1-1.5-2.5-1.5-4.3c0-1.5,0.3-2.7,0.9-3.9c0.7-1.1,1.5-2,2.7-2.8c1.1-0.8,2.4-1.3,4-1.7 c1.6-0.4,3.2-0.5,5.1-0.5s3.6,0.1,5.1,0.4s2.7,0.7,3.7,1.1c1.1,0.4,2,0.8,2.8,1.3s1.5,0.9,2,1.3l-3.2,5.2c-0.5-0.4-1.3-0.7-2-1.1 c-0.8-0.4-1.6-0.7-2.4-1.1c-0.8-0.3-1.7-0.5-2.7-0.8c-0.9-0.1-1.9-0.3-2.8-0.3c-1.6,0-2.9,0.3-4,0.7c-1.1,0.4-1.5,1.1-1.5,2 c0,0.7,0.5,1.3,1.5,1.7c0.9,0.4,2.1,0.8,3.6,1.2s2.9,0.8,4.7,1.2c1.7,0.4,3.2,0.9,4.7,1.7c1.5,0.7,2.7,1.6,3.6,2.7s1.5,2.5,1.5,4.3 c0,2.9-1.1,5.3-3.3,7.1c-2.1,1.7-5.5,2.5-9.7,2.5c-3.3,0-6.3-0.5-8.8-1.5c-2.4-1.1-4.4-2.1-5.9-3.5l3.6-5.6c0.5,0.4,1.2,0.9,2,1.5 c0.8,0.5,1.7,1.1,2.8,1.5c1.1,0.4,2.1,0.8,3.3,1.1c1.2,0.3,2.4,0.4,3.6,0.4s2.4-0.3,3.2-0.7C81.8-274.9,82.2-275.6,82.2-276.6z"></path> <path id="Shape_2_" class="st1" d="M-68.7-258.9c-2.3,4.1-3.9,8-5.1,11.9c-1.1,3.9-1.6,7.6-1.6,11.5c0,3.7,0.5,7.6,1.6,11.5 s2.8,7.9,5.1,12h-5.9c-2.7-4-4.7-7.9-6-11.7c-1.3-3.9-2-7.7-2-11.7s0.7-7.9,2-11.7c1.3-3.9,3.3-7.7,6-11.6L-68.7-258.9L-68.7-258.9 L-68.7-258.9z"></path> <path id="Shape_1_" class="st1" d="M-52.8-258.9h5.9c2.7,3.9,4.7,7.7,6,11.6c1.3,3.9,2,7.7,2,11.7s-0.7,7.9-2,11.7 c-1.3,3.9-3.3,7.7-6,11.7h-5.9c2.3-4.1,3.9-8.1,5.1-12c1.1-3.9,1.6-7.7,1.6-11.5c0-3.9-0.5-7.6-1.6-11.5 C-48.9-250.8-50.5-254.8-52.8-258.9z"></path> </g> </svg> 