<?xml version="1.0" encoding="UTF-8"?> <!-- Generator: Adobe Illustrator 24.2.1, SVG Export Plug-In . SVG Version: 6.00 Build 0) --> <svg xmlns="http://www.w3.org/2000/svg" xmlns:xlink="http://www.w3.org/1999/xlink" id="Isolation_Mode" x="0px" y="0px" viewBox="0 0 375.2 104.4" style="enable-background:new 0 0 375.2 104.4;" xml:space="preserve"> <style type="text/css"> .st0{fill:#1D1E21;} .st1{fill:#29C278;} </style> <rect y="0" class="st0" width="375.2" height="104.4"></rect> <g id="Logos_1_" transform="translate(-120.000000, -406.000000)"> <g> <g> <g id="MixBytes-logo-Copy_8_" transform="translate(120.000000, 406.000000)"> <polygon id="Shape_80_" class="st1" points="49.7,45.6 50,39.6 49.7,39.6 43.5,49.7 42.2,49.7 35.8,39.6 35.5,39.6 35.8,45 35.8,66.1 28.7,66.1 28.7,27.6 36.3,27.6 42.9,38.3 43.1,38.3 49.7,27.6 57.3,27.6 57.3,66.1 49.7,66.1 "></polygon> <path id="Shape_79_" class="st1" d="M62.7,60h9.7V44.6h-9.7v-6h16.8V60h10.2v6h-27C62.7,66,62.7,60,62.7,60z M71.1,31.1 c0-1.1,0.4-2.1,1.3-2.9c0.8-0.8,2-1.2,3.5-1.2s2.8,0.4,3.7,1.2C80.5,29,81,30,81,31.1c0,1.2-0.5,2.1-1.4,2.9s-2.1,1.1-3.7,1.1 c-1.5,0-2.7-0.4-3.5-1.1C71.5,33.3,71.1,32.3,71.1,31.1z"></path> <polygon id="Shape_78_" class="st1" points="104.1,51.9 94.5,38.6 103,38.6 109.2,47.8 115.7,38.6 123.5,38.6 114.1,51.8 124,66.1 115.7,66.1 108.8,56 101.7,66.1 93.8,66.1 "></polygon> <path id="Shape_77_" class="st1" d="M154.8,36.6c0,1-0.1,1.9-0.4,2.9c-0.2,1-0.6,1.8-1.2,2.6c-0.5,0.8-1.3,1.5-2.1,2.1 c-0.9,0.6-1.9,1.1-3.2,1.3v0.3c1.1,0.2,2.1,0.5,3.1,0.9s1.9,1,2.6,1.8c0.7,0.8,1.3,1.7,1.7,2.8s0.6,2.4,0.6,3.9 c0,2-0.4,3.7-1.3,5.1c-0.8,1.4-2,2.6-3.4,3.5s-3,1.6-4.8,2s-3.7,0.7-5.6,0.7c-0.6,0-1.4,0-2.4,0s-2,0-3.1-0.1s-2.3-0.1-3.4-0.3 c-1.2-0.1-2.2-0.3-3.2-0.5v-38c0.7-0.1,1.5-0.2,2.4-0.3c0.9-0.1,1.9-0.2,2.9-0.3c1-0.1,2.1-0.1,3.2-0.2c1.1,0,2.2-0.1,3.2-0.1 c1.8,0,3.5,0.1,5.3,0.4c1.7,0.3,3.2,0.8,4.6,1.5c1.3,0.7,2.4,1.7,3.2,2.9C154.4,33.1,154.8,34.7,154.8,36.6z M138.5,43.8 c0.5,0,1.1,0,1.8-0.1c0.7,0,1.3-0.1,1.7-0.2c1.4-0.4,2.6-1.1,3.7-2c1-0.9,1.5-2,1.5-3.4c0-0.9-0.2-1.7-0.6-2.3 c-0.4-0.6-0.9-1.1-1.5-1.5s-1.3-0.6-2.1-0.8c-0.8-0.1-1.6-0.2-2.5-0.2c-1,0-1.9,0-2.7,0.1c-0.8,0-1.5,0.1-1.9,0.2v10.2H138.5 L138.5,43.8z M140.9,60.3c0.9,0,1.8-0.1,2.7-0.3s1.6-0.6,2.3-1c0.7-0.5,1.2-1,1.6-1.7c0.4-0.7,0.6-1.5,0.6-2.5 c0-1.2-0.2-2.1-0.7-2.8s-1.1-1.2-1.9-1.6c-0.8-0.4-1.6-0.6-2.6-0.7c-1-0.1-1.9-0.2-2.9-0.2h-4V60c0.2,0.1,0.5,0.1,0.9,0.2 c0.4,0,0.8,0.1,1.3,0.1s0.9,0,1.4,0.1C140.1,60.3,140.6,60.3,140.9,60.3z"></path> <path id="Shape_76_" class="st1" d="M175,58.3h2.1l5.3-19.7h7.4L182,63.4c-0.7,2.1-1.4,3.9-2,5.6c-0.7,1.7-1.4,3.2-2.3,4.4 c-0.9,1.3-1.9,2.2-3.1,2.9c-1.2,0.7-2.6,1-4.4,1c-0.8,0-1.6-0.1-2.4-0.3c-0.8-0.2-1.4-0.5-2.1-0.8c-0.6-0.3-1.2-0.6-1.6-1 c-0.5-0.3-0.9-0.7-1.2-1l3.7-4.9c0.5,0.4,1,0.8,1.7,1.1c0.7,0.3,1.3,0.5,1.9,0.5c1.1,0,2-0.4,2.6-1.2c0.6-0.8,1.3-2,1.8-3.8 h-3.9l-11.4-27.5h7.8L175,58.3z"></path> <path id="Shape_75_" class="st1" d="M197.9,44.6h-5.4v-6h5.4v-6.3l7.1-2v8.3h14.4v6H205v7.9c0,2.8,0.5,4.9,1.6,6.1 c1.1,1.3,2.6,1.9,4.5,1.9c1,0,1.9-0.1,2.7-0.4c0.8-0.2,1.5-0.5,2.2-0.9c0.6-0.4,1.2-0.8,1.8-1.2c0.5-0.4,1-0.8,1.5-1.2l3.3,4.9 c-0.6,0.7-1.4,1.4-2.3,2c-0.9,0.6-1.9,1.1-3,1.6s-2.2,0.8-3.4,1.1c-1.2,0.3-2.3,0.4-3.5,0.4c-4.1,0-7.2-1.1-9.3-3.4 c-2.1-2.3-3.1-5.9-3.1-10.9L197.9,44.6L197.9,44.6L197.9,44.6z"></path> <path id="Shape_74_" class="st1" d="M253.8,63.2c-0.5,0.4-1.1,0.9-1.8,1.3s-1.6,0.8-2.6,1.2c-1,0.4-2.1,0.7-3.3,0.9 c-1.2,0.2-2.5,0.3-3.9,0.3c-2.4,0-4.4-0.3-6.3-1c-1.9-0.7-3.4-1.6-4.7-2.9c-1.3-1.3-2.3-2.8-2.9-4.6c-0.7-1.8-1-3.8-1-6.1 c0-2.4,0.4-4.5,1.1-6.4c0.8-1.8,1.8-3.3,3.2-4.5c1.3-1.2,2.9-2.1,4.7-2.7c1.8-0.6,3.7-0.9,5.8-0.9c1.4,0,2.8,0.2,4.3,0.6 c1.5,0.4,2.9,1,4.1,1.9c1.2,0.9,2.3,2.1,3,3.6c0.8,1.5,1.2,3.4,1.2,5.7c0,1.6-0.2,3.3-0.6,5.1h-19.8c0,1.2,0.3,2.2,0.7,3 c0.5,0.8,1.1,1.5,1.8,2c0.8,0.5,1.6,0.9,2.6,1.1c1,0.2,2,0.4,3.1,0.4c2.2,0,4-0.3,5.4-0.8s2.6-1.1,3.4-1.9L253.8,63.2z M242,43.5c-1,0-1.9,0.1-2.7,0.4c-0.8,0.3-1.6,0.6-2.3,1.1s-1.2,1.1-1.7,1.9c-0.4,0.7-0.7,1.6-0.8,2.5H248 c0-1.8-0.5-3.3-1.5-4.3C245.6,44.1,244,43.5,242,43.5z"></path> <path id="Shape_73_" class="st1" d="M279.6,58.5c0-0.7-0.4-1.3-1.4-1.8c-0.9-0.4-2-0.8-3.3-1.2s-2.8-0.7-4.3-1.1 c-1.6-0.4-3-0.9-4.3-1.6c-1.3-0.7-2.4-1.5-3.3-2.6c-0.9-1-1.4-2.4-1.4-4c0-1.4,0.3-2.6,0.9-3.6s1.4-1.9,2.5-2.6 c1-0.7,2.3-1.3,3.7-1.6c1.4-0.4,3-0.5,4.7-0.5c1.8,0,3.4,0.1,4.7,0.4c1.4,0.3,2.5,0.6,3.5,0.9c1,0.4,1.9,0.8,2.6,1.2 c0.7,0.5,1.3,0.9,1.8,1.2l-3,4.9c-0.6-0.3-1.2-0.7-1.9-1c-0.7-0.3-1.5-0.7-2.3-1s-1.6-0.5-2.5-0.7s-1.7-0.3-2.6-0.3 c-1.5,0-2.8,0.2-3.7,0.6c-1,0.4-1.4,1-1.4,1.9c0,0.7,0.4,1.2,1.3,1.6c0.9,0.4,2,0.8,3.3,1.1c1.3,0.4,2.8,0.7,4.3,1.1 c1.6,0.4,3,0.9,4.3,1.6c1.3,0.6,2.4,1.5,3.3,2.5s1.4,2.3,1.4,4c0,2.8-1,5-3.1,6.6c-2,1.6-5,2.4-9,2.4c-3.2,0-5.9-0.5-8.2-1.4 c-2.3-0.9-4.1-2-5.5-3.3L264,57c0.5,0.4,1.1,0.9,1.9,1.4s1.7,0.9,2.7,1.3c1,0.4,2,0.7,3.2,1c1.1,0.3,2.2,0.4,3.3,0.4 c1.2,0,2.2-0.2,3-0.6C279.2,60.1,279.6,59.5,279.6,58.5z"></path> <path id="Shape_72_" class="st1" d="M315.3,24.3c-2.4,4.3-4.1,8.4-5.3,12.5c-1.1,4-1.7,8-1.7,12.1c0,4,0.6,8,1.7,12 s2.9,8.2,5.3,12.5h-6.1c-2.8-4.1-5-8.2-6.3-12.3c-1.4-4-2.1-8.1-2.1-12.3s0.7-8.3,2.1-12.3s3.5-8.1,6.3-12.2L315.3,24.3 L315.3,24.3L315.3,24.3z"></path> <path id="Shape_71_" class="st1" d="M331.9,24.3h6.1c2.8,4.1,4.9,8.2,6.3,12.2s2.1,8.1,2.1,12.3s-0.7,8.3-2.1,12.3 s-3.5,8.1-6.3,12.3h-6.1c2.4-4.3,4.1-8.5,5.3-12.5c1.1-4,1.7-8.1,1.7-12c0-4-0.6-8-1.7-12.1C336,32.7,334.3,28.6,331.9,24.3z"></path> </g> </g> </g> </g> </svg> 