<svg height="81.102" viewBox="0 0 221.28 81.102" width="221.28" xmlns="http://www.w3.org/2000/svg"><g fill="#000" transform="scale(0.7) translate(0, 30)"><path d="m73 8.907v25h31.254v-6.72h-24.534v-6.872h24.535v-20.315h-22.348zm24.378-2.187v6.72h-17.658v-1.72l5-5z" transform="translate(41.078)"/><path d="m133.477 6.72h19.378v-6.72h-22.19l-9.065 8.907v11.408h24.535v6.876h-24.535v6.72h31.254v-20.311h-24.378v-1.88z" transform="translate(68.426)"/><path d="m97.3 8.907v25h6.876v-22.187l4.844-5h12.658v27.191h6.876v-33.911h-22.347z" transform="translate(54.752)"/><path d="m24.3 26.251v25h31.254v-6.72h-24.378v-6.72h24.378v-20.311h-22.347zm24.535-2.188v6.72h-17.659v-1.875l5-5h12.659z" transform="translate(13.674 9.848)"/><path d="m6.72 26.959v-22.659h-6.72v54.382h6.72v-22.19l5-5h12.658v27.19h6.876v-33.911h-22.347z" transform="translate(0 2.42)"/><path d="m79.8 42.611v-9.064l-10-7.814 10-7.814v-9.219h-6.72v5.782l-8.907 6.876-8.753-6.876v-5.782h-6.72v9.22l10 7.814-10 7.814v9.064h6.72v-5.783l8.751-6.876 8.907 6.876v5.782z" transform="translate(27.404 4.896)"/><path d="m60.315 0h-10.157l-10.158 10.158v10.157h6.72v-7.345l6.25-6.25h7.345z" transform="translate(22.509)"/><path d="m77.9 33.445-6.255 6.255h-7.345v6.72h10.158l10.157-10.162v-10.158h-6.715z" transform="translate(36.183 14.687)"/></g></svg>
